{"title":"IIFA AWARDS FULL SEGMENT SHOW_sameer_Ecs","uid":7436936,"size":3167994292,"categoryP":"video","categoryS":"tv_shows","magnet":"?xt=urn:btih:79d9dbaf9cafae8f0ce3a7b84ce5602e5499b05c&amp;dn=IIFA+AWARDS+FULL+SEGMENT+SHOW_sameer_Ecs&amp;tr=udp%3A%2F%2Ftracker.openbittorrent.com%3A80&amp;tr=udp%3A%2F%2Fopen.demonii.com%3A1337&amp;tr=udp%3A%2F%2Ftracker.coppersurfer.tk%3A6969&amp;tr=udp%3A%2F%2Fexodus.desync.com%3A6969","seeders":0,"leechers":6,"uploader":"sameer_ecs","files":7,"time":1342109006,"description":"[b]General[/b]\nComplete name : IIFA 2012 FULL SEGMENT SHOW.avi\nFormat : AVI\nFormat/Info : Audio Video Interleave\nFormat profile : OpenDML\nFile size : 2.95 GiB\nDuration : 2h 34mn\nOverall bit rate : 2 731 Kbps\nWriting application : Lavf52.93.0\nVideo\nID : 0\nFormat : MPEG-4 Visual\nFormat profile : Simple@L1\nFormat settings, BVOP : No\nFormat settings, QPel : No\nFormat settings, GMC : No warppoints\nFormat settings, Matrix : Default (H.263)\nCodec ID : FMP4\nDuration : 2h 34mn\nBit rate : 2 656 Kbps\nWidth : 720 pixels\nHeight : 480 pixels\nDisplay aspect ratio : 3:2\nFrame rate : 23.976 fps\nStandard : NTSC\nColor space : YUV\nChroma subsampling : 4:2:0\nBit depth : 8 bits\nScan type : Progressive\nCompression mode : Lossy\nBits/(Pixel*Frame) : 0.321\nStream size : 2.87 GiB (97%)\nWriting library : Lavc52.108.0\nAudio\nID : 1\nFormat : MPEG Audio\nFormat version : Version 1\nFormat profile : Layer 2\nCodec ID : 50\nDuration : 2h 34mn\nBit rate mode : Constant\nBit rate : 64.0 Kbps\nChannel(s) : 2 channels\nSampling rate : 44.1 KHz\nCompression mode : Lossy\nStream size : 70.8 MiB (2%)\nAlignment : Aligned on interleaves\nInterleave, duration : 26 ms (0.63 video frame)","torrent":{"xt":"urn:btih:79d9dbaf9cafae8f0ce3a7b84ce5602e5499b05c","amp;dn":"IIFA+AWARDS+FULL+SEGMENT+SHOW_sameer_Ecs","amp;tr":["udp%3A%2F%2Ftracker.openbittorrent.com%3A80","udp%3A%2F%2Fopen.demonii.com%3A1337","udp%3A%2F%2Ftracker.coppersurfer.tk%3A6969","udp%3A%2F%2Fexodus.desync.com%3A6969"],"infoHash":"79d9dbaf9cafae8f0ce3a7b84ce5602e5499b05c","infoHashBuffer":{"type":"Buffer","data":[121,217,219,175,156,175,174,143,12,227,167,184,76,229,96,46,84,153,176,92]},"announce":[],"urlList":[]}}